<svg xmlns="http://www.w3.org/2000/svg" width="30" height="30" viewBox="0 0 30 30">
    <g fill="none" fill-rule="evenodd" stroke="#FFF" stroke-linecap="round" stroke-linejoin="round" stroke-width="3">
        <path fill="#235CFF" d="M9.939 15.58l.27.754.277.187-.378-.941h-.17zm.996.701l.254-.701h-.228l-.378.94.352-.239zM10.57 8.46l1.503-4.16h6.666l-5.752 14.28H8.08L2.348 4.3h6.73l1.492 4.16z"/>
        <path fill="#FF234A" d="M15.653 20.027c-.918-.774-1.367-1.817-1.367-3.303v-.032c0-3.019 2.43-5.084 5.836-5.084 2.199 0 4.03.6 5.547 1.818l1.101.884-2.147 3.034c1.264.829 1.911 1.992 1.911 3.668v.032c0 3.17-2.503 5.148-6.028 5.148-2.377 0-4.59-.77-6.242-2.233l-1.093-.967 2.482-2.965z"/>
    </g>
</svg>
